<svg xmlns="http://www.w3.org/2000/svg" viewBox="0 0 48 48" role="img" aria-labelledby="title">
  <title>Google Stitch</title>
  <path fill="#FFC107" d="M43.6 20.1H42V20H24v8h11.3A12 12 0 1 1 32 14.2l5.7-5.7A20 20 0 1 0 44 24c0-1.3-.1-2.6-.4-3.9Z"/>
  <path fill="#FF3D00" d="m6.3 14.7 6.6 4.8A12 12 0 0 1 32 14.2l5.7-5.7A20 20 0 0 0 6.3 14.7Z"/>
  <path fill="#4CAF50" d="M24 44a20 20 0 0 0 13.5-5.2l-6.2-5.2A12 12 0 0 1 13 28.5l-6.5 5A20 20 0 0 0 24 44Z"/>
  <path fill="#1976D2" d="M43.6 20.1H42V20H24v8h11.3a12 12 0 0 1-4 5.6l6.2 5.2C41.2 35.4 44 30.4 44 24c0-1.3-.1-2.6-.4-3.9Z"/>
</svg>
